<svg width="24" height="24" viewBox="0 0 24 24" fill="none" xmlns="http://www.w3.org/2000/svg">
<path d="M15.125 17.0034C15.5 15.7573 16.2773 14.6948 17.0469 13.6362C17.25 13.3589 17.4531 13.0815 17.6484 12.8003C18.4219 11.687 18.875 10.3394 18.875 8.88232C18.875 5.08154 15.7969 2.00342 12 2.00342C8.20312 2.00342 5.125 5.08154 5.125 8.87842C5.125 10.3354 5.57813 11.687 6.35156 12.7964C6.54688 13.0776 6.75 13.355 6.95312 13.6323C7.72656 14.6909 8.50391 15.7573 8.875 16.9995H15.125V17.0034ZM12 22.0034C13.7266 22.0034 15.125 20.605 15.125 18.8784V18.2534H8.875V18.8784C8.875 20.605 10.2734 22.0034 12 22.0034ZM8.875 8.87842C8.875 9.22217 8.59375 9.50342 8.25 9.50342C7.90625 9.50342 7.625 9.22217 7.625 8.87842C7.625 6.46045 9.58203 4.50342 12 4.50342C12.3438 4.50342 12.625 4.78467 12.625 5.12842C12.625 5.47217 12.3438 5.75342 12 5.75342C10.2734 5.75342 8.875 7.15186 8.875 8.87842Z" fill="#FF8F00"/>
</svg>
