<svg width="184" height="56" viewBox="0 0 184 56" fill="none" xmlns="http://www.w3.org/2000/svg">
<path d="M18.4693 0.313759C17.4825 0.773903 16.5298 1.66011 16.1555 2.49518C15.9173 3.04054 15.7302 3.22801 15.4579 3.22801C14.3861 3.24505 12.8209 4.45506 12.2594 5.69915C11.1195 8.20438 13.0761 11.4083 15.7302 11.4083C16.0874 11.4083 16.2065 11.5106 16.2746 11.8685C16.3426 12.1412 16.4447 12.6524 16.5298 13.0274C16.6148 13.4193 16.6148 13.7772 16.5298 13.8795C16.2576 14.2033 15.8492 16.0439 15.8492 16.9471C15.8492 21.1225 19.9665 24.3265 23.9476 23.2698C25.8361 22.7756 27.4694 21.4974 28.3031 19.8614C28.4902 19.5035 28.7454 18.6854 28.8815 18.0378C29.2898 16.0609 28.7114 14.0499 27.2823 12.4309C26.7719 11.8514 26.5507 11.4083 26.3976 10.6414C26.2104 9.72115 26.2104 9.6189 26.4996 9.44847C27.1121 9.10763 28.1329 8.10213 28.3881 7.59085C28.7964 6.82395 28.7454 5.18788 28.3031 4.31872C27.6906 3.12575 26.3976 2.37589 24.9344 2.37589C24.3049 2.37589 24.1688 2.30772 23.9136 1.86462C23.5563 1.26813 22.4675 0.46714 21.6508 0.194464C20.7831 -0.112301 19.2689 -0.0441303 18.4693 0.313759ZM20.9873 1.86462C21.872 2.12025 22.5185 2.83603 22.8758 3.97787L23.182 4.94929L23.8115 4.57435C24.5601 4.13125 25.4958 4.09717 26.1083 4.48914C26.6357 4.84703 26.993 5.78436 26.8229 6.43197C26.6528 7.11367 25.9042 7.82945 25.3427 7.82945C24.8493 7.82945 24.1858 8.34072 24.1858 8.71565C24.1858 8.83495 24.3049 9.39735 24.441 9.95974C24.5771 10.5221 24.6792 11.0334 24.6962 11.1016C24.6962 11.1868 24.1858 11.2379 23.5563 11.2379C22.3314 11.2379 21.8039 11.5106 21.8039 12.1412C21.8039 12.874 22.2803 13.1126 23.6584 13.1126C25.4278 13.1126 25.9892 13.4193 26.6528 14.7146C27.0781 15.5667 27.1632 15.9246 27.1461 16.9301C27.1291 18.7877 26.3295 20.134 24.6622 21.0373C23.8796 21.4804 23.5903 21.5486 22.3994 21.5486C20.4939 21.5486 19.371 20.901 18.2651 19.1967C17.8398 18.5491 17.8058 18.3276 17.8058 16.8619C17.8058 15.4815 17.8568 15.1577 18.1801 14.6294L18.5714 14.0158L18.1631 12.0389C17.9419 10.9482 17.6697 9.92566 17.5336 9.77228C17.3634 9.56777 17.1253 9.51664 16.5808 9.60185C14.9816 9.82341 13.8076 8.81791 13.8076 7.23296C13.8076 6.51718 13.8927 6.34676 14.4882 5.75028C15.1517 5.08562 15.1687 5.06858 16.2746 5.13675L17.3805 5.18788L17.4825 4.5914C17.7377 3.04054 18.129 2.4611 19.2519 1.96687C19.9665 1.66011 20.1706 1.64306 20.9873 1.86462Z" fill="#F48E28"/>
<path d="M4.41611 20.9181C4.07585 20.9863 4.02481 21.7021 4.26299 22.9462C4.34806 23.3552 4.3991 23.679 4.38209 23.679C4.10987 23.679 0.417963 25.0935 0.247829 25.2639C0.0266548 25.4684 0.0436682 25.707 0.264843 27.0193C0.417963 27.8544 0.690178 29.6779 0.877325 31.0924C1.18357 33.3761 1.77904 37.8923 2.51061 43.1925C2.64672 44.2151 2.85088 45.7148 2.95296 46.5158C3.05504 47.3168 3.20816 48.0496 3.29323 48.1689C3.42934 48.3393 4.36507 48.3564 7.27437 48.2711C11.7149 48.1518 11.2895 47.8792 10.7451 50.5207C10.2687 52.8385 10.2857 53.5372 10.8812 54.1848C11.1704 54.5257 11.6128 54.7813 12.1062 54.8836C16.1384 55.8039 21.1743 56.1958 25.3426 55.9061C27.9797 55.7357 31.4504 55.2415 32.8795 54.8665C33.5771 54.6791 34.3597 53.9803 34.4958 53.4179C34.5469 53.1964 34.4108 51.9353 34.1726 50.6059L33.7642 48.1689L37.6773 48.2371C41.029 48.2882 41.6074 48.2711 41.7265 48.0496C41.7946 47.9132 42.1348 45.6807 42.4751 43.1073C43.7001 33.8874 44.6869 26.8318 44.874 25.9627C45.0101 25.281 44.857 25.1787 42.6282 24.4118C40.5356 23.679 40.6377 23.8324 40.9269 21.8725C41.029 21.2078 41.012 20.9863 40.8418 20.9181C40.2634 20.6966 35.0232 21.7191 29.7151 23.0825C26.8738 23.8153 26.2103 24.0539 26.4145 24.2584C26.4655 24.3096 27.2991 24.2414 28.2689 24.088C30.872 23.7301 35.2784 23.2018 36.9117 23.0655C38.2047 22.9632 38.3068 22.9802 38.3068 23.27C38.3068 23.4574 38.0686 25.4684 37.7964 27.7692C37.5072 30.0699 37.0819 33.6317 36.8437 35.6939C36.6055 37.756 36.3163 40.176 36.2142 41.0622L35.993 42.6642L34.1385 42.971C30.957 43.4993 26.1252 44.7775 24.8152 45.4421C24.4749 45.6125 24.3558 45.783 24.3899 46.0386C24.4749 46.6521 24.9173 46.7885 26.0061 46.5499C26.5506 46.4306 29.3748 45.9193 32.2671 45.408C37.7794 44.4196 37.9666 44.3514 37.9666 43.4993C37.9666 43.2948 38.1197 41.9825 38.3068 40.6021C38.494 39.2216 38.7662 37.1936 38.9193 36.1199C39.0554 35.0463 39.2426 33.6658 39.3276 33.0523C39.4127 32.4388 39.6509 30.7516 39.838 29.303C40.0252 27.8544 40.2293 26.4228 40.2634 26.1331L40.3484 25.6048L41.3692 25.9286C42.5772 26.3206 42.5261 26.116 42.0328 29.32C41.8456 30.5812 41.5734 32.3365 41.4373 33.2227C41.3012 34.1089 41.029 35.9154 40.8588 37.2277C40.3484 40.8236 39.6679 45.3739 39.5658 45.6807C39.4978 45.9193 38.9703 45.9704 35.7888 46.0727C32.9816 46.1749 32.0459 46.2601 31.8587 46.4306C31.6376 46.6351 31.6716 47.0611 32.0629 49.6175C32.4712 52.3954 32.4882 52.5829 32.216 52.8555C31.6886 53.4009 25.6659 54.1848 22.042 54.1848C20.3577 54.1848 16.1724 53.7758 14.2329 53.4179C12.8888 53.1623 12.1572 52.7022 12.3273 52.242C12.3784 52.1398 12.6166 50.8275 12.8888 49.3448C13.3311 46.8396 13.3311 46.6351 13.0759 46.4306C12.8037 46.2261 9.52014 46.0045 6.815 46.0045C5.2838 46.0045 5.41991 46.192 5.06262 43.6186C4.79041 41.6928 2.85088 28.7917 2.61269 27.292C2.52763 26.7977 2.52763 26.3546 2.59568 26.3035C2.68075 26.2524 3.15712 26.082 3.66752 25.8945L4.58625 25.5877L4.7734 26.7125C4.99457 28.1611 5.41991 31.314 6.76396 41.6246C6.9341 42.9369 7.15527 44.0958 7.25735 44.2321C7.35943 44.3684 8.26114 44.607 9.38403 44.8115C13.9776 45.5955 18.18 46.3624 18.7414 46.5158C19.6942 46.7885 20.2386 46.7203 20.4427 46.3454C20.783 45.7148 20.3917 45.4251 18.5372 44.8456C15.5259 43.9083 12.0041 43.0903 9.89443 42.8005L8.95869 42.6812L8.8396 41.8291C8.77155 41.3519 8.36322 37.9775 7.93789 34.3305C7.51255 30.6664 7.05319 26.7637 6.91709 25.6389C6.5598 22.6564 6.44071 22.9462 7.98893 23.0655C10.0646 23.2529 13.6884 23.6619 16.1724 24.0198C17.4314 24.2073 18.5032 24.3266 18.5372 24.2755C18.5713 24.2414 18.5543 24.1391 18.5032 24.0369C18.3841 23.8494 11.6468 22.1963 8.10802 21.4976C4.9095 20.867 4.7734 20.8329 4.41611 20.9181Z" fill="#F48E28"/>
<path d="M62.9738 17.904H73.6538V32.856H62.9738V17.904ZM70.5338 20.4H66.1178V30.336H70.5338V20.4ZM77.1098 15.888H80.3258V38.184H77.1098V15.888ZM89.1559 16.92H91.7959V19.056C91.7959 23.256 89.7559 27.072 85.4119 28.464L83.8519 25.944C87.5959 24.744 89.1559 21.864 89.1559 19.056V16.92ZM89.8039 16.92H92.4199V19.056C92.4199 21.792 93.9559 24.48 97.5799 25.584L96.0199 28.08C91.7719 26.736 89.8039 23.184 89.8039 19.056V16.92ZM87.2599 30.144H102.428V38.136H99.2119V32.688H87.2599V30.144ZM99.2119 15.912H102.428V29.16H99.2119V15.912ZM113.178 17.376C116.682 17.376 119.298 19.656 119.298 22.848C119.298 26.064 116.682 28.344 113.178 28.344C109.698 28.344 107.034 26.064 107.034 22.848C107.034 19.656 109.698 17.376 113.178 17.376ZM113.178 20.112C111.474 20.112 110.178 21.12 110.178 22.848C110.178 24.6 111.474 25.608 113.178 25.608C114.882 25.608 116.178 24.6 116.178 22.848C116.178 21.12 114.882 20.112 113.178 20.112ZM121.386 15.888H124.578V38.184H121.386V15.888ZM106.506 33.672L106.122 31.104C110.034 31.104 115.482 31.056 120.162 30.36L120.402 32.664C115.578 33.624 110.346 33.672 106.506 33.672ZM151.172 22.848H157.028V25.416H151.172V22.848ZM145.124 17.616H147.716V20.832C147.716 26.424 145.82 31.584 141.644 33.672L139.652 31.104C143.444 29.352 145.124 25.056 145.124 20.832V17.616ZM145.796 17.616H148.34V20.832C148.34 25.056 149.948 29.112 153.62 30.744L151.724 33.288C147.548 31.272 145.796 26.376 145.796 20.832V17.616ZM155.444 15.888H158.612V38.184H155.444V15.888ZM178.266 15.912H181.29V38.136H178.266V15.912ZM175.602 24.432H179.298V27.024H175.602V24.432ZM173.49 16.248H176.466V37.128H173.49V16.248ZM166.002 19.368H168.426V21.336C168.426 26.832 167.226 31.68 163.53 33.912L161.61 31.464C164.946 29.544 166.002 25.608 166.002 21.336V19.368ZM166.65 19.368H169.098V21.336C169.098 25.248 170.226 28.944 173.538 30.672L171.714 33.096C167.97 31.08 166.65 26.496 166.65 21.336V19.368ZM162.33 18.168H172.434V20.736H162.33V18.168Z" fill="#F48E28"/>
</svg>
