<svg width="64" height="65" viewBox="0 0 64 65" fill="none" xmlns="http://www.w3.org/2000/svg">
<path fill-rule="evenodd" clip-rule="evenodd" d="M58.7709 0.651965C60.2543 -0.512007 62.4782 0.0867776 63.1832 1.84764C63.3563 2.26547 63.3528 2.9936 63.1671 5.13306C62.4547 13.1241 60.2961 20.256 56.4663 27.0853C52.4198 34.3114 46.967 39.9346 40.8955 43.1798L40.85 43.2043C39.3952 43.9877 39.3715 44.0004 38.7548 45.3388C37.915 47.0879 36.3847 49.4573 35.0556 51.0559C29.9687 57.1428 21.8116 61.5196 11.8639 63.5091C8.75557 64.1214 6.02518 64.4901 3.03015 64.6534C1.39014 64.7429 0.0737299 63.361 0.161612 61.7209C0.241652 60.2271 1.46604 59.0615 2.95906 58.9686C4.49757 58.8728 5.97282 58.7096 7.622 58.4678C16.5911 57.172 23.6095 54.1552 28.6223 49.45C29.9128 48.2401 31.3492 46.6295 31.3634 46.3638C31.3653 46.3284 31.0278 46.3281 30.6157 46.3948C29.5061 46.5485 25.5738 46.3378 24.4525 46.0468C19.1928 44.7525 15.4548 41.2481 14.0685 36.2888C12.277 29.94 14.9375 23.3856 20.6576 20.0683C23.1519 18.6032 25.3452 18.1168 28.5148 18.3044C31.2426 18.4506 32.362 18.777 34.6393 20.0359C38.0899 21.9439 40.2565 24.9377 41.2771 29.0958C41.5808 30.3911 41.6602 31.2302 41.6348 33.3605L41.6006 35.9877L42.9199 34.9038C47.7354 30.8985 52.2943 24.055 54.7593 17.1704C56.2036 13.0911 57.095 9.05323 57.5037 4.74078C57.7852 1.80709 57.9358 1.31777 58.7709 0.651965ZM34.7998 39.5846C34.9491 39.4505 35.2407 38.649 35.4457 37.8073C35.9202 35.9142 36.197 33.0691 36.0547 31.747C35.9244 30.5321 35.4113 28.8348 34.8939 27.8833C33.2725 24.9898 29.5067 23.3314 26.1124 24.0199C20.2937 25.2003 17.3517 31.7041 20.3667 36.7684C22.0449 39.5939 25.41 41.1065 29.4397 40.8251C31.2401 40.7084 34.3696 39.9879 34.7998 39.5846Z" fill="#FF8F00"/>
</svg>
