<svg width="295" height="51" viewBox="0 0 295 51" fill="none" xmlns="http://www.w3.org/2000/svg">
<mask id="path-1-outside-1_4086_1149" maskUnits="userSpaceOnUse" x="-6" y="-6" width="307" height="63" fill="black">
<rect fill="white" x="-6" y="-6" width="307" height="63"/>
<path d="M23.1719 2.45312C26.763 2.45312 30.0078 3.03646 32.9062 4.20312C35.8047 5.35156 38.0833 6.98307 39.7422 9.09766C41.4193 11.194 42.2578 13.6094 42.2578 16.3438C42.2578 18.8411 41.6107 21.0742 40.3164 23.043C39.0221 24.9935 37.2266 26.5794 34.9297 27.8008C32.651 29.0221 30.026 29.8242 27.0547 30.207V38.1641H46.1953V44.5625H0.3125V38.1641H19.2891V30.207C16.3359 29.8242 13.7109 29.0221 11.4141 27.8008C9.13542 26.5794 7.35807 24.9935 6.08203 23.043C4.82422 21.0742 4.19531 18.8411 4.19531 16.3438C4.19531 13.6094 5.01562 11.194 6.65625 9.09766C8.3151 6.98307 10.5846 5.35156 13.4648 4.20312C16.3451 3.03646 19.5807 2.45312 23.1719 2.45312ZM12.0156 16.3438C12.0156 18.0208 12.4714 19.4518 13.3828 20.6367C14.3125 21.8034 15.6159 22.6875 17.293 23.2891C18.9701 23.8906 20.9297 24.2005 23.1719 24.2188C25.4323 24.2005 27.4102 23.8906 29.1055 23.2891C30.8008 22.6875 32.1133 21.8034 33.043 20.6367C33.9727 19.4518 34.4375 18.0208 34.4375 16.3438C34.4375 14.7578 33.9635 13.3906 33.0156 12.2422C32.0859 11.0938 30.7734 10.2188 29.0781 9.61719C27.3828 8.9974 25.4141 8.6875 23.1719 8.6875C20.9479 8.6875 18.9883 8.9974 17.293 9.61719C15.6159 10.2188 14.3125 11.0938 13.3828 12.2422C12.4714 13.3906 12.0156 14.7578 12.0156 16.3438ZM89.2891 15.7969H54.2344V0.59375H62.0547V9.61719H89.2891V15.7969ZM48.6562 18.6406H94.5391V24.8203H48.6562V18.6406ZM53.7422 27.3906H89.1797V41.2266H61.7266V43.6875H90.6562V49.7031H53.7969V35.6484H81.3594V33.4062H53.7422V27.3906ZM152.891 50.1953H144.852V39.5859H135.062V33.6797H144.852V0.101562H152.891V50.1953ZM109.469 25.3125C110.836 25.3125 111.866 25.3034 112.559 25.2852C118.939 25.2669 124.362 25.194 128.828 25.0664C133.294 24.9388 137.633 24.638 141.844 24.1641L142.336 29.9062C138.417 30.4896 134.115 30.9271 129.43 31.2188V48.7734H121.445V31.5742C118.237 31.6654 114.536 31.7109 110.344 31.7109L109.469 25.3125ZM113.461 2.39844H139V21.6484H113.461V2.39844ZM131.289 15.5234V8.57812H121.227V15.5234H131.289ZM213.047 50.3047H205.227V38.1094H178.375V31.875H213.047V50.3047ZM172.578 3.60156H196.641V11.9141H205.227V0.046875H213.047V29.7969H205.227V18.1484H196.641V27.2812H172.578V3.60156ZM188.93 21.1016V9.89062H180.398V21.1016H188.93ZM238.859 13.1719C238.859 15.9609 239.288 18.6862 240.145 21.3477C241.001 23.9909 242.341 26.3789 244.164 28.5117C246.005 30.6445 248.32 32.276 251.109 33.4062L246.898 39.5859C244.073 38.401 241.667 36.7057 239.68 34.5C237.693 32.2943 236.125 29.6966 234.977 26.707C233.828 29.9883 232.242 32.8503 230.219 35.293C228.214 37.7174 225.789 39.5677 222.945 40.8438L218.461 34.6641C221.232 33.4427 223.538 31.7018 225.379 29.4414C227.238 27.1628 228.605 24.6198 229.48 21.8125C230.374 19.0052 230.82 16.125 230.82 13.1719V11.2031H220.539V4.80469H248.922V11.2031H238.859V13.1719ZM253.188 0.046875H261.117V50.25H253.188V0.046875ZM276.375 32.1484C276.375 30.0156 276.548 28.293 276.895 26.9805C277.259 25.668 277.779 24.6198 278.453 23.8359C279.128 23.0339 280.039 22.2682 281.188 21.5391C282.573 20.6276 283.621 19.7617 284.332 18.9414C285.061 18.1211 285.435 17.1641 285.453 16.0703C285.435 14.9036 285.025 13.9557 284.223 13.2266C283.421 12.4974 282.427 12.1328 281.242 12.1328C280.44 12.1328 279.693 12.306 279 12.6523C278.326 12.9987 277.779 13.5091 277.359 14.1836C276.94 14.8398 276.721 15.6146 276.703 16.5078H268.008C268.044 13.9375 268.646 11.7773 269.812 10.0273C270.997 8.27734 272.574 6.98307 274.543 6.14453C276.53 5.28776 278.763 4.85938 281.242 4.85938C283.904 4.85938 286.264 5.27865 288.324 6.11719C290.384 6.95573 291.997 8.1862 293.164 9.80859C294.331 11.431 294.914 13.3724 294.914 15.6328C294.896 17.8203 294.358 19.6797 293.301 21.2109C292.262 22.724 290.758 24.0729 288.789 25.2578C287.24 26.151 286.128 27.1081 285.453 28.1289C284.779 29.1315 284.432 30.4714 284.414 32.1484V32.9141H276.375V32.1484ZM275.609 40.5703C275.591 39.6953 275.801 38.8841 276.238 38.1367C276.694 37.3893 277.296 36.7969 278.043 36.3594C278.809 35.9219 279.638 35.7031 280.531 35.7031C281.388 35.7031 282.199 35.9219 282.965 36.3594C283.73 36.7969 284.341 37.3893 284.797 38.1367C285.271 38.8841 285.508 39.6953 285.508 40.5703C285.508 41.4635 285.271 42.293 284.797 43.0586C284.341 43.8242 283.73 44.4349 282.965 44.8906C282.199 45.3281 281.388 45.5469 280.531 45.5469C279.638 45.5469 278.809 45.3281 278.043 44.8906C277.296 44.4349 276.694 43.8242 276.238 43.0586C275.801 42.293 275.591 41.4635 275.609 40.5703Z"/>
</mask>
<path d="M23.1719 2.45312C26.763 2.45312 30.0078 3.03646 32.9062 4.20312C35.8047 5.35156 38.0833 6.98307 39.7422 9.09766C41.4193 11.194 42.2578 13.6094 42.2578 16.3438C42.2578 18.8411 41.6107 21.0742 40.3164 23.043C39.0221 24.9935 37.2266 26.5794 34.9297 27.8008C32.651 29.0221 30.026 29.8242 27.0547 30.207V38.1641H46.1953V44.5625H0.3125V38.1641H19.2891V30.207C16.3359 29.8242 13.7109 29.0221 11.4141 27.8008C9.13542 26.5794 7.35807 24.9935 6.08203 23.043C4.82422 21.0742 4.19531 18.8411 4.19531 16.3438C4.19531 13.6094 5.01562 11.194 6.65625 9.09766C8.3151 6.98307 10.5846 5.35156 13.4648 4.20312C16.3451 3.03646 19.5807 2.45312 23.1719 2.45312ZM12.0156 16.3438C12.0156 18.0208 12.4714 19.4518 13.3828 20.6367C14.3125 21.8034 15.6159 22.6875 17.293 23.2891C18.9701 23.8906 20.9297 24.2005 23.1719 24.2188C25.4323 24.2005 27.4102 23.8906 29.1055 23.2891C30.8008 22.6875 32.1133 21.8034 33.043 20.6367C33.9727 19.4518 34.4375 18.0208 34.4375 16.3438C34.4375 14.7578 33.9635 13.3906 33.0156 12.2422C32.0859 11.0938 30.7734 10.2188 29.0781 9.61719C27.3828 8.9974 25.4141 8.6875 23.1719 8.6875C20.9479 8.6875 18.9883 8.9974 17.293 9.61719C15.6159 10.2188 14.3125 11.0938 13.3828 12.2422C12.4714 13.3906 12.0156 14.7578 12.0156 16.3438ZM89.2891 15.7969H54.2344V0.59375H62.0547V9.61719H89.2891V15.7969ZM48.6562 18.6406H94.5391V24.8203H48.6562V18.6406ZM53.7422 27.3906H89.1797V41.2266H61.7266V43.6875H90.6562V49.7031H53.7969V35.6484H81.3594V33.4062H53.7422V27.3906ZM152.891 50.1953H144.852V39.5859H135.062V33.6797H144.852V0.101562H152.891V50.1953ZM109.469 25.3125C110.836 25.3125 111.866 25.3034 112.559 25.2852C118.939 25.2669 124.362 25.194 128.828 25.0664C133.294 24.9388 137.633 24.638 141.844 24.1641L142.336 29.9062C138.417 30.4896 134.115 30.9271 129.43 31.2188V48.7734H121.445V31.5742C118.237 31.6654 114.536 31.7109 110.344 31.7109L109.469 25.3125ZM113.461 2.39844H139V21.6484H113.461V2.39844ZM131.289 15.5234V8.57812H121.227V15.5234H131.289ZM213.047 50.3047H205.227V38.1094H178.375V31.875H213.047V50.3047ZM172.578 3.60156H196.641V11.9141H205.227V0.046875H213.047V29.7969H205.227V18.1484H196.641V27.2812H172.578V3.60156ZM188.93 21.1016V9.89062H180.398V21.1016H188.93ZM238.859 13.1719C238.859 15.9609 239.288 18.6862 240.145 21.3477C241.001 23.9909 242.341 26.3789 244.164 28.5117C246.005 30.6445 248.32 32.276 251.109 33.4062L246.898 39.5859C244.073 38.401 241.667 36.7057 239.68 34.5C237.693 32.2943 236.125 29.6966 234.977 26.707C233.828 29.9883 232.242 32.8503 230.219 35.293C228.214 37.7174 225.789 39.5677 222.945 40.8438L218.461 34.6641C221.232 33.4427 223.538 31.7018 225.379 29.4414C227.238 27.1628 228.605 24.6198 229.48 21.8125C230.374 19.0052 230.82 16.125 230.82 13.1719V11.2031H220.539V4.80469H248.922V11.2031H238.859V13.1719ZM253.188 0.046875H261.117V50.25H253.188V0.046875ZM276.375 32.1484C276.375 30.0156 276.548 28.293 276.895 26.9805C277.259 25.668 277.779 24.6198 278.453 23.8359C279.128 23.0339 280.039 22.2682 281.188 21.5391C282.573 20.6276 283.621 19.7617 284.332 18.9414C285.061 18.1211 285.435 17.1641 285.453 16.0703C285.435 14.9036 285.025 13.9557 284.223 13.2266C283.421 12.4974 282.427 12.1328 281.242 12.1328C280.44 12.1328 279.693 12.306 279 12.6523C278.326 12.9987 277.779 13.5091 277.359 14.1836C276.94 14.8398 276.721 15.6146 276.703 16.5078H268.008C268.044 13.9375 268.646 11.7773 269.812 10.0273C270.997 8.27734 272.574 6.98307 274.543 6.14453C276.53 5.28776 278.763 4.85938 281.242 4.85938C283.904 4.85938 286.264 5.27865 288.324 6.11719C290.384 6.95573 291.997 8.1862 293.164 9.80859C294.331 11.431 294.914 13.3724 294.914 15.6328C294.896 17.8203 294.358 19.6797 293.301 21.2109C292.262 22.724 290.758 24.0729 288.789 25.2578C287.24 26.151 286.128 27.1081 285.453 28.1289C284.779 29.1315 284.432 30.4714 284.414 32.1484V32.9141H276.375V32.1484ZM275.609 40.5703C275.591 39.6953 275.801 38.8841 276.238 38.1367C276.694 37.3893 277.296 36.7969 278.043 36.3594C278.809 35.9219 279.638 35.7031 280.531 35.7031C281.388 35.7031 282.199 35.9219 282.965 36.3594C283.73 36.7969 284.341 37.3893 284.797 38.1367C285.271 38.8841 285.508 39.6953 285.508 40.5703C285.508 41.4635 285.271 42.293 284.797 43.0586C284.341 43.8242 283.73 44.4349 282.965 44.8906C282.199 45.3281 281.388 45.5469 280.531 45.5469C279.638 45.5469 278.809 45.3281 278.043 44.8906C277.296 44.4349 276.694 43.8242 276.238 43.0586C275.801 42.293 275.591 41.4635 275.609 40.5703Z" fill="#FF8F00"/>
<path d="M32.9062 4.20312L30.6658 9.76914L30.6809 9.77522L30.6961 9.78121L32.9062 4.20312ZM39.7422 9.09766L35.0215 12.801L35.0391 12.8235L35.057 12.8458L39.7422 9.09766ZM40.3164 23.043L45.3159 26.3604L45.323 26.3497L45.33 26.339L40.3164 23.043ZM34.9297 27.8008L32.1127 22.5032L32.1039 22.5078L32.0952 22.5125L34.9297 27.8008ZM27.0547 30.207L26.288 24.2562L21.0547 24.9304V30.207H27.0547ZM27.0547 38.1641H21.0547V44.1641H27.0547V38.1641ZM46.1953 38.1641H52.1953V32.1641H46.1953V38.1641ZM46.1953 44.5625V50.5625H52.1953V44.5625H46.1953ZM0.3125 44.5625H-5.6875V50.5625H0.3125V44.5625ZM0.3125 38.1641V32.1641H-5.6875V38.1641H0.3125ZM19.2891 38.1641V44.1641H25.2891V38.1641H19.2891ZM19.2891 30.207H25.2891V24.9346L20.0604 24.2568L19.2891 30.207ZM11.4141 27.8008L8.57956 33.089L8.58831 33.0937L8.59708 33.0984L11.4141 27.8008ZM6.08203 23.043L1.02585 26.2733L1.0433 26.3006L1.06104 26.3277L6.08203 23.043ZM6.65625 9.09766L1.93551 5.39432L1.93122 5.39981L6.65625 9.09766ZM13.4648 4.20312L15.6871 9.77641L15.7023 9.77036L15.7174 9.76422L13.4648 4.20312ZM13.3828 20.6367L8.62707 24.295L8.65841 24.3357L8.69046 24.3759L13.3828 20.6367ZM23.1719 24.2188L23.1231 30.2186L23.1717 30.2189L23.2203 30.2186L23.1719 24.2188ZM33.043 20.6367L37.7353 24.3759L37.7494 24.3582L37.7634 24.3404L33.043 20.6367ZM33.0156 12.2422L28.3522 16.0174L28.3701 16.0396L28.3883 16.0616L33.0156 12.2422ZM29.0781 9.61719L27.0179 15.2524L27.0448 15.2622L27.0717 15.2718L29.0781 9.61719ZM17.293 9.61719L19.3188 15.2649L19.336 15.2587L19.3532 15.2524L17.293 9.61719ZM13.3828 12.2422L8.71934 8.467L8.7011 8.48953L8.68308 8.51224L13.3828 12.2422ZM23.1719 8.45312C26.1088 8.45312 28.5778 8.92867 30.6658 9.76914L35.1467 -1.36289C31.4378 -2.85575 27.4172 -3.54688 23.1719 -3.54688V8.45312ZM30.6961 9.78121C32.7664 10.6016 34.1173 11.6485 35.0215 12.801L44.4629 5.39432C42.0494 2.31769 38.8429 0.101571 35.1164 -1.37496L30.6961 9.78121ZM35.057 12.8458C35.866 13.8571 36.2578 14.9444 36.2578 16.3438H48.2578C48.2578 12.2744 46.9726 8.53093 44.4274 5.34949L35.057 12.8458ZM36.2578 16.3438C36.2578 17.7436 35.9142 18.817 35.3028 19.747L45.33 26.339C47.3072 23.3315 48.2578 19.9387 48.2578 16.3438H36.2578ZM35.3169 19.7256C34.6336 20.7554 33.6286 21.6971 32.1127 22.5032L37.7467 33.0984C40.8245 31.4618 43.4107 29.2315 45.3159 26.3604L35.3169 19.7256ZM32.0952 22.5125C30.5532 23.339 28.6487 23.9521 26.288 24.2562L27.8214 36.1578C31.4033 35.6964 34.7488 34.7053 37.7642 33.089L32.0952 22.5125ZM21.0547 30.207V38.1641H33.0547V30.207H21.0547ZM27.0547 44.1641H46.1953V32.1641H27.0547V44.1641ZM40.1953 38.1641V44.5625H52.1953V38.1641H40.1953ZM46.1953 38.5625H0.3125V50.5625H46.1953V38.5625ZM6.3125 44.5625V38.1641H-5.6875V44.5625H6.3125ZM0.3125 44.1641H19.2891V32.1641H0.3125V44.1641ZM25.2891 38.1641V30.207H13.2891V38.1641H25.2891ZM20.0604 24.2568C17.7206 23.9535 15.8057 23.3405 14.231 22.5032L8.59708 33.0984C11.6162 34.7038 14.9513 35.6949 18.5177 36.1572L20.0604 24.2568ZM14.2486 22.5125C12.7564 21.7127 11.7712 20.7796 11.103 19.7582L1.06104 26.3277C2.94491 29.2074 5.51447 31.4461 8.57956 33.089L14.2486 22.5125ZM11.1382 19.8126C10.5397 18.8758 10.1953 17.7789 10.1953 16.3438H-1.80469C-1.80469 19.9034 -0.891267 23.2726 1.02585 26.2733L11.1382 19.8126ZM10.1953 16.3438C10.1953 14.9104 10.5907 13.8057 11.3813 12.7955L1.93122 5.39981C-0.55947 8.58236 -1.80469 12.3083 -1.80469 16.3438H10.1953ZM11.377 12.801C12.2878 11.64 13.6369 10.5939 15.6871 9.77641L11.2426 -1.37016C7.53237 0.109224 4.34245 2.32615 1.93552 5.39432L11.377 12.801ZM15.7174 9.76422C17.7796 8.92892 20.2341 8.45312 23.1719 8.45312V-3.54688C18.9274 -3.54688 14.9105 -2.856 11.2122 -1.35797L15.7174 9.76422ZM6.01562 16.3438C6.01562 19.1743 6.81107 21.9342 8.62707 24.295L18.1386 16.9785C18.1316 16.9695 18.0156 16.8673 18.0156 16.3438H6.01562ZM8.69046 24.3759C10.4391 26.5704 12.7469 28.0327 15.2672 28.9367L19.3188 17.6414C18.4849 17.3423 18.1859 17.0364 18.0752 16.8975L8.69046 24.3759ZM15.2672 28.9367C17.7187 29.8161 20.3734 30.1962 23.1231 30.2186L23.2207 18.2189C21.486 18.2048 20.2214 17.9652 19.3188 17.6414L15.2672 28.9367ZM23.2203 30.2186C25.9843 30.1963 28.6499 29.8172 31.1119 28.9436L27.099 17.6345C26.1704 17.964 24.8803 18.2048 23.1235 18.2189L23.2203 30.2186ZM31.1119 28.9436C33.645 28.0448 35.975 26.5849 37.7353 24.3759L28.3506 16.8975C28.2515 17.0218 27.9566 17.3302 27.099 17.6345L31.1119 28.9436ZM37.7634 24.3404C39.6164 21.9787 40.4375 19.2025 40.4375 16.3438H28.4375C28.4375 16.6242 28.3994 16.7686 28.3824 16.8211C28.3678 16.8662 28.3531 16.894 28.3225 16.933L37.7634 24.3404ZM40.4375 16.3438C40.4375 13.4616 39.5385 10.7193 37.643 8.4228L28.3883 16.0616C28.3988 16.0743 28.4053 16.0833 28.409 16.0886C28.4126 16.0939 28.4142 16.0966 28.4143 16.0969C28.4145 16.0971 28.414 16.0964 28.4134 16.095C28.4128 16.0936 28.4127 16.0931 28.413 16.0942C28.4133 16.095 28.4187 16.1104 28.4244 16.1461C28.4303 16.1826 28.4375 16.2466 28.4375 16.3438H40.4375ZM37.6791 8.467C35.9164 6.28959 33.5948 4.85336 31.0846 3.96262L27.0717 15.2718C27.952 15.5841 28.2554 15.8979 28.3522 16.0174L37.6791 8.467ZM31.1383 3.98197C28.6449 3.07041 25.9531 2.6875 23.1719 2.6875V14.6875C24.875 14.6875 26.1207 14.9244 27.0179 15.2524L31.1383 3.98197ZM23.1719 2.6875C20.4024 2.6875 17.7213 3.07219 15.2328 3.98197L19.3532 15.2524C20.2553 14.9226 21.4934 14.6875 23.1719 14.6875V2.6875ZM15.2672 3.96952C12.7697 4.86534 10.4704 6.30396 8.71934 8.467L18.0463 16.0174C18.1546 15.8835 18.462 15.5722 19.3188 15.2649L15.2672 3.96952ZM8.68308 8.51224C6.859 10.8106 6.01562 13.5215 6.01562 16.3438H18.0156C18.0156 16.1313 18.045 16.0398 18.0495 16.0263C18.0528 16.0165 18.0549 16.0124 18.0564 16.0096C18.058 16.0067 18.0648 15.9946 18.0825 15.9721L8.68308 8.51224ZM89.2891 15.7969V21.7969H95.2891V15.7969H89.2891ZM54.2344 15.7969H48.2344V21.7969H54.2344V15.7969ZM54.2344 0.59375V-5.40625H48.2344V0.59375H54.2344ZM62.0547 0.59375H68.0547V-5.40625H62.0547V0.59375ZM62.0547 9.61719H56.0547V15.6172H62.0547V9.61719ZM89.2891 9.61719H95.2891V3.61719H89.2891V9.61719ZM48.6562 18.6406V12.6406H42.6562V18.6406H48.6562ZM94.5391 18.6406H100.539V12.6406H94.5391V18.6406ZM94.5391 24.8203V30.8203H100.539V24.8203H94.5391ZM48.6562 24.8203H42.6562V30.8203H48.6562V24.8203ZM53.7422 27.3906V21.3906H47.7422V27.3906H53.7422ZM89.1797 27.3906H95.1797V21.3906H89.1797V27.3906ZM89.1797 41.2266V47.2266H95.1797V41.2266H89.1797ZM61.7266 41.2266V35.2266H55.7266V41.2266H61.7266ZM61.7266 43.6875H55.7266V49.6875H61.7266V43.6875ZM90.6562 43.6875H96.6562V37.6875H90.6562V43.6875ZM90.6562 49.7031V55.7031H96.6562V49.7031H90.6562ZM53.7969 49.7031H47.7969V55.7031H53.7969V49.7031ZM53.7969 35.6484V29.6484H47.7969V35.6484H53.7969ZM81.3594 35.6484V41.6484H87.3594V35.6484H81.3594ZM81.3594 33.4062H87.3594V27.4062H81.3594V33.4062ZM53.7422 33.4062H47.7422V39.4062H53.7422V33.4062ZM89.2891 9.79688H54.2344V21.7969H89.2891V9.79688ZM60.2344 15.7969V0.59375H48.2344V15.7969H60.2344ZM54.2344 6.59375H62.0547V-5.40625H54.2344V6.59375ZM56.0547 0.59375V9.61719H68.0547V0.59375H56.0547ZM62.0547 15.6172H89.2891V3.61719H62.0547V15.6172ZM83.2891 9.61719V15.7969H95.2891V9.61719H83.2891ZM48.6562 24.6406H94.5391V12.6406H48.6562V24.6406ZM88.5391 18.6406V24.8203H100.539V18.6406H88.5391ZM94.5391 18.8203H48.6562V30.8203H94.5391V18.8203ZM54.6562 24.8203V18.6406H42.6562V24.8203H54.6562ZM53.7422 33.3906H89.1797V21.3906H53.7422V33.3906ZM83.1797 27.3906V41.2266H95.1797V27.3906H83.1797ZM89.1797 35.2266H61.7266V47.2266H89.1797V35.2266ZM55.7266 41.2266V43.6875H67.7266V41.2266H55.7266ZM61.7266 49.6875H90.6562V37.6875H61.7266V49.6875ZM84.6562 43.6875V49.7031H96.6562V43.6875H84.6562ZM90.6562 43.7031H53.7969V55.7031H90.6562V43.7031ZM59.7969 49.7031V35.6484H47.7969V49.7031H59.7969ZM53.7969 41.6484H81.3594V29.6484H53.7969V41.6484ZM87.3594 35.6484V33.4062H75.3594V35.6484H87.3594ZM81.3594 27.4062H53.7422V39.4062H81.3594V27.4062ZM59.7422 33.4062V27.3906H47.7422V33.4062H59.7422ZM152.891 50.1953V56.1953H158.891V50.1953H152.891ZM144.852 50.1953H138.852V56.1953H144.852V50.1953ZM144.852 39.5859H150.852V33.5859H144.852V39.5859ZM135.062 39.5859H129.062V45.5859H135.062V39.5859ZM135.062 33.6797V27.6797H129.062V33.6797H135.062ZM144.852 33.6797V39.6797H150.852V33.6797H144.852ZM144.852 0.101562V-5.89844H138.852V0.101562H144.852ZM152.891 0.101562H158.891V-5.89844H152.891V0.101562ZM109.469 25.3125V19.3125H102.592L103.524 26.1254L109.469 25.3125ZM112.559 25.2852L112.541 19.2852L112.471 19.2854L112.401 19.2872L112.559 25.2852ZM141.844 24.1641L147.822 23.6517L147.296 17.5125L141.173 18.2017L141.844 24.1641ZM142.336 29.9062L143.219 35.8409L148.795 35.0109L148.314 29.3938L142.336 29.9062ZM129.43 31.2188L129.057 25.2303L123.43 25.5807V31.2188H129.43ZM129.43 48.7734V54.7734H135.43V48.7734H129.43ZM121.445 48.7734H115.445V54.7734H121.445V48.7734ZM121.445 31.5742H127.445V25.4013L121.275 25.5766L121.445 31.5742ZM110.344 31.7109L104.399 32.5239L105.108 37.7109H110.344V31.7109ZM113.461 2.39844V-3.60156H107.461V2.39844H113.461ZM139 2.39844H145V-3.60156H139V2.39844ZM139 21.6484V27.6484H145V21.6484H139ZM113.461 21.6484H107.461V27.6484H113.461V21.6484ZM131.289 15.5234V21.5234H137.289V15.5234H131.289ZM131.289 8.57812H137.289V2.57812H131.289V8.57812ZM121.227 8.57812V2.57812H115.227V8.57812H121.227ZM121.227 15.5234H115.227V21.5234H121.227V15.5234ZM152.891 44.1953H144.852V56.1953H152.891V44.1953ZM150.852 50.1953V39.5859H138.852V50.1953H150.852ZM144.852 33.5859H135.062V45.5859H144.852V33.5859ZM141.062 39.5859V33.6797H129.062V39.5859H141.062ZM135.062 39.6797H144.852V27.6797H135.062V39.6797ZM150.852 33.6797V0.101562H138.852V33.6797H150.852ZM144.852 6.10156H152.891V-5.89844H144.852V6.10156ZM146.891 0.101562V50.1953H158.891V0.101562H146.891ZM109.469 31.3125C110.848 31.3125 111.942 31.3035 112.716 31.2831L112.401 19.2872C111.789 19.3033 110.823 19.3125 109.469 19.3125V31.3125ZM112.576 31.2851C118.988 31.2668 124.465 31.1935 128.999 31.064L128.657 19.0689C124.259 19.1945 118.89 19.267 112.541 19.2852L112.576 31.2851ZM128.999 31.064C133.624 30.9318 138.129 30.62 142.515 30.1264L141.173 18.2017C137.136 18.656 132.965 18.9458 128.657 19.0689L128.999 31.064ZM135.866 24.6765L136.358 30.4187L148.314 29.3938L147.822 23.6517L135.866 24.6765ZM141.453 23.9716C137.73 24.5257 133.601 24.9474 129.057 25.2303L129.803 37.2072C134.628 36.9067 139.103 36.4535 143.219 35.8409L141.453 23.9716ZM123.43 31.2188V48.7734H135.43V31.2188H123.43ZM129.43 42.7734H121.445V54.7734H129.43V42.7734ZM127.445 48.7734V31.5742H115.445V48.7734H127.445ZM121.275 25.5766C118.137 25.6658 114.496 25.7109 110.344 25.7109V37.7109C114.577 37.7109 118.337 37.665 121.616 37.5718L121.275 25.5766ZM116.288 30.898L115.413 24.4996L103.524 26.1254L104.399 32.5239L116.288 30.898ZM113.461 8.39844H139V-3.60156H113.461V8.39844ZM133 2.39844V21.6484H145V2.39844H133ZM139 15.6484H113.461V27.6484H139V15.6484ZM119.461 21.6484V2.39844H107.461V21.6484H119.461ZM137.289 15.5234V8.57812H125.289V15.5234H137.289ZM131.289 2.57812H121.227V14.5781H131.289V2.57812ZM115.227 8.57812V15.5234H127.227V8.57812H115.227ZM121.227 21.5234H131.289V9.52344H121.227V21.5234ZM213.047 50.3047V56.3047H219.047V50.3047H213.047ZM205.227 50.3047H199.227V56.3047H205.227V50.3047ZM205.227 38.1094H211.227V32.1094H205.227V38.1094ZM178.375 38.1094H172.375V44.1094H178.375V38.1094ZM178.375 31.875V25.875H172.375V31.875H178.375ZM213.047 31.875H219.047V25.875H213.047V31.875ZM172.578 3.60156V-2.39844H166.578V3.60156H172.578ZM196.641 3.60156H202.641V-2.39844H196.641V3.60156ZM196.641 11.9141H190.641V17.9141H196.641V11.9141ZM205.227 11.9141V17.9141H211.227V11.9141H205.227ZM205.227 0.046875V-5.95312H199.227V0.046875H205.227ZM213.047 0.046875H219.047V-5.95312H213.047V0.046875ZM213.047 29.7969V35.7969H219.047V29.7969H213.047ZM205.227 29.7969H199.227V35.7969H205.227V29.7969ZM205.227 18.1484H211.227V12.1484H205.227V18.1484ZM196.641 18.1484V12.1484H190.641V18.1484H196.641ZM196.641 27.2812V33.2812H202.641V27.2812H196.641ZM172.578 27.2812H166.578V33.2812H172.578V27.2812ZM188.93 21.1016V27.1016H194.93V21.1016H188.93ZM188.93 9.89062H194.93V3.89062H188.93V9.89062ZM180.398 9.89062V3.89062H174.398V9.89062H180.398ZM180.398 21.1016H174.398V27.1016H180.398V21.1016ZM213.047 44.3047H205.227V56.3047H213.047V44.3047ZM211.227 50.3047V38.1094H199.227V50.3047H211.227ZM205.227 32.1094H178.375V44.1094H205.227V32.1094ZM184.375 38.1094V31.875H172.375V38.1094H184.375ZM178.375 37.875H213.047V25.875H178.375V37.875ZM207.047 31.875V50.3047H219.047V31.875H207.047ZM172.578 9.60156H196.641V-2.39844H172.578V9.60156ZM190.641 3.60156V11.9141H202.641V3.60156H190.641ZM196.641 17.9141H205.227V5.91406H196.641V17.9141ZM211.227 11.9141V0.046875H199.227V11.9141H211.227ZM205.227 6.04688H213.047V-5.95312H205.227V6.04688ZM207.047 0.046875V29.7969H219.047V0.046875H207.047ZM213.047 23.7969H205.227V35.7969H213.047V23.7969ZM211.227 29.7969V18.1484H199.227V29.7969H211.227ZM205.227 12.1484H196.641V24.1484H205.227V12.1484ZM190.641 18.1484V27.2812H202.641V18.1484H190.641ZM196.641 21.2812H172.578V33.2812H196.641V21.2812ZM178.578 27.2812V3.60156H166.578V27.2812H178.578ZM194.93 21.1016V9.89062H182.93V21.1016H194.93ZM188.93 3.89062H180.398V15.8906H188.93V3.89062ZM174.398 9.89062V21.1016H186.398V9.89062H174.398ZM180.398 27.1016H188.93V15.1016H180.398V27.1016ZM240.145 21.3477L234.433 23.1862L234.437 23.1977L240.145 21.3477ZM244.164 28.5117L239.603 32.41L239.613 32.4213L239.622 32.4324L244.164 28.5117ZM251.109 33.4062L256.068 36.7849L260.256 30.6387L253.363 27.8455L251.109 33.4062ZM246.898 39.5859L244.578 45.1191L249.097 47.0142L251.857 42.9646L246.898 39.5859ZM234.977 26.707L240.578 24.5554L234.715 9.29311L229.313 24.7249L234.977 26.707ZM230.219 35.293L225.598 31.4654L225.595 31.469L230.219 35.293ZM222.945 40.8438L218.089 44.3677L220.953 48.3141L225.402 46.3179L222.945 40.8438ZM218.461 34.6641L216.041 29.1738L209.239 32.1719L213.605 38.188L218.461 34.6641ZM225.379 29.4414L220.73 25.6481L220.727 25.6522L225.379 29.4414ZM229.48 21.8125L223.763 19.9933L223.758 20.0102L223.752 20.0271L229.48 21.8125ZM230.82 11.2031H236.82V5.20312H230.82V11.2031ZM220.539 11.2031H214.539V17.2031H220.539V11.2031ZM220.539 4.80469V-1.19531H214.539V4.80469H220.539ZM248.922 4.80469H254.922V-1.19531H248.922V4.80469ZM248.922 11.2031V17.2031H254.922V11.2031H248.922ZM238.859 11.2031V5.20312H232.859V11.2031H238.859ZM253.188 0.046875V-5.95312H247.188V0.046875H253.188ZM261.117 0.046875H267.117V-5.95312H261.117V0.046875ZM261.117 50.25V56.25H267.117V50.25H261.117ZM253.188 50.25H247.188V56.25H253.188V50.25ZM232.859 13.1719C232.859 16.5867 233.386 19.9322 234.433 23.1862L245.856 19.5091C245.19 17.4402 244.859 15.3352 244.859 13.1719H232.859ZM234.437 23.1977C235.54 26.6 237.272 29.6826 239.603 32.41L248.725 24.6134C247.41 23.0752 246.463 21.3817 245.852 19.4976L234.437 23.1977ZM239.622 32.4324C242.127 35.3344 245.246 37.5043 248.856 38.967L253.363 27.8455C251.394 27.0478 249.883 25.9547 248.706 24.591L239.622 32.4324ZM246.151 30.0276L241.94 36.2073L251.857 42.9646L256.068 36.7849L246.151 30.0276ZM249.219 34.0528C247.182 33.1986 245.513 32.0114 244.138 30.4842L235.222 38.5158C237.82 41.4 240.964 43.6034 244.578 45.1191L249.219 34.0528ZM244.138 30.4842C242.68 28.8662 241.483 26.9132 240.578 24.5554L229.376 28.8586C230.767 32.48 232.705 35.7223 235.222 38.5158L244.138 30.4842ZM229.313 24.7249C228.378 27.3985 227.126 29.6214 225.598 31.4654L234.839 39.1205C237.359 36.0791 239.279 32.578 240.64 28.6891L229.313 24.7249ZM225.595 31.469C224.171 33.1915 222.485 34.4739 220.489 35.3696L225.402 46.3179C229.093 44.6616 232.256 42.2434 234.842 39.117L225.595 31.469ZM227.801 37.3198L223.317 31.1401L213.605 38.188L218.089 44.3677L227.801 37.3198ZM220.881 40.1544C224.485 38.5657 227.567 36.2554 230.031 33.2306L220.727 25.6522C219.508 27.1483 217.978 28.3197 216.041 29.1738L220.881 40.1544ZM230.028 33.2348C232.372 30.362 234.105 27.1375 235.209 23.5979L223.752 20.0271C223.106 22.1021 222.105 23.9635 220.73 25.6481L230.028 33.2348ZM235.198 23.6317C236.279 20.2347 236.82 16.7408 236.82 13.1719H224.82C224.82 15.5092 224.469 17.7757 223.763 19.9933L235.198 23.6317ZM236.82 13.1719V11.2031H224.82V13.1719H236.82ZM230.82 5.20312H220.539V17.2031H230.82V5.20312ZM226.539 11.2031V4.80469H214.539V11.2031H226.539ZM220.539 10.8047H248.922V-1.19531H220.539V10.8047ZM242.922 4.80469V11.2031H254.922V4.80469H242.922ZM248.922 5.20312H238.859V17.2031H248.922V5.20312ZM232.859 11.2031V13.1719H244.859V11.2031H232.859ZM253.188 6.04688H261.117V-5.95312H253.188V6.04688ZM255.117 0.046875V50.25H267.117V0.046875H255.117ZM261.117 44.25H253.188V56.25H261.117V44.25ZM259.188 50.25V0.046875H247.188V50.25H259.188ZM276.895 26.9805L271.113 25.3746L271.103 25.412L271.093 25.4495L276.895 26.9805ZM278.453 23.8359L283.001 27.7494L283.023 27.7236L283.045 27.6975L278.453 23.8359ZM281.188 21.5391L284.404 26.6043L284.445 26.5783L284.485 26.5516L281.188 21.5391ZM284.332 18.9414L279.848 14.9552L279.823 14.9834L279.798 15.0118L284.332 18.9414ZM285.453 16.0703L291.452 16.1703L291.454 16.0734L291.452 15.9766L285.453 16.0703ZM284.223 13.2266L280.187 17.6662L284.223 13.2266ZM279 12.6523L276.317 7.28578L276.288 7.30021L276.259 7.31494L279 12.6523ZM277.359 14.1836L282.416 17.4139L282.436 17.3827L282.455 17.3512L277.359 14.1836ZM276.703 16.5078V22.5078H282.582L282.702 16.6302L276.703 16.5078ZM268.008 16.5078L262.008 16.4227L261.922 22.5078H268.008V16.5078ZM269.812 10.0273L264.844 6.6634L264.832 6.68123L264.82 6.69914L269.812 10.0273ZM274.543 6.14453L276.894 11.6647L276.906 11.6594L276.919 11.6542L274.543 6.14453ZM293.164 9.80859L288.293 13.3115L293.164 9.80859ZM294.914 15.6328L300.914 15.6828L300.914 15.6578V15.6328H294.914ZM293.301 21.2109L288.363 17.8018L288.359 17.808L288.355 17.8143L293.301 21.2109ZM288.789 25.2578L291.786 30.4559L291.835 30.4277L291.883 30.3986L288.789 25.2578ZM285.453 28.1289L290.431 31.478L290.445 31.4573L290.459 31.4365L285.453 28.1289ZM284.414 32.1484L278.414 32.0832L278.414 32.1158V32.1484H284.414ZM284.414 32.9141V38.9141H290.414V32.9141H284.414ZM276.375 32.9141H270.375V38.9141H276.375V32.9141ZM275.609 40.5703L281.608 40.6927L281.611 40.569L281.608 40.4453L275.609 40.5703ZM276.238 38.1367L271.116 35.0131L271.087 35.0591L271.06 35.1056L276.238 38.1367ZM278.043 36.3594L275.066 31.1499L275.039 31.1655L275.012 31.1813L278.043 36.3594ZM284.797 38.1367L279.674 41.2604L279.702 41.3054L279.73 41.35L284.797 38.1367ZM284.797 43.0586L279.695 39.9005L279.668 39.9448L279.641 39.9897L284.797 43.0586ZM282.965 44.8906L285.942 50.1001L285.988 50.0736L286.034 50.0464L282.965 44.8906ZM278.043 44.8906L274.919 50.0134L274.992 50.0578L275.066 50.1001L278.043 44.8906ZM276.238 43.0586L271.029 46.0354L271.055 46.0817L271.083 46.1275L276.238 43.0586ZM282.375 32.1484C282.375 30.2742 282.534 29.1245 282.696 28.5114L271.093 25.4495C270.562 27.4614 270.375 29.7571 270.375 32.1484H282.375ZM282.676 28.5863C282.876 27.8664 283.055 27.6871 283.001 27.7494L273.905 19.9225C272.503 21.5524 271.643 23.4696 271.113 25.3746L282.676 28.5863ZM283.045 27.6975C283.228 27.4804 283.627 27.0973 284.404 26.6043L277.971 16.4738C276.451 17.4392 275.027 18.5873 273.861 19.9743L283.045 27.6975ZM284.485 26.5516C286.115 25.479 287.658 24.265 288.866 22.871L279.798 15.0118C279.584 15.2584 279.03 15.7762 277.89 16.5266L284.485 26.5516ZM288.816 22.9276C290.496 21.0386 291.41 18.7042 291.452 16.1703L279.454 15.9703C279.456 15.8507 279.481 15.6537 279.57 15.426C279.659 15.1986 279.772 15.0397 279.848 14.9552L288.816 22.9276ZM291.452 15.9766C291.41 13.2937 290.388 10.723 288.259 8.78692L280.187 17.6662C279.989 17.4864 279.775 17.2141 279.625 16.867C279.479 16.5299 279.455 16.2668 279.454 16.1641L291.452 15.9766ZM288.259 8.78692C286.245 6.95674 283.769 6.13281 281.242 6.13281V18.1328C281.213 18.1328 281.049 18.1269 280.809 18.039C280.561 17.9478 280.345 17.8097 280.187 17.6662L288.259 8.78692ZM281.242 6.13281C279.543 6.13281 277.873 6.50779 276.317 7.28578L281.683 18.0189C281.611 18.055 281.525 18.0868 281.434 18.1078C281.344 18.1287 281.276 18.1328 281.242 18.1328V6.13281ZM276.259 7.31494C274.571 8.18192 273.228 9.46401 272.264 11.016L282.455 17.3512C282.403 17.4349 282.314 17.5546 282.178 17.6813C282.041 17.8092 281.89 17.9134 281.741 17.9897L276.259 7.31494ZM272.303 10.9533C271.207 12.6695 270.742 14.5549 270.704 16.3854L282.702 16.6302C282.702 16.6386 282.699 16.7331 282.655 16.8872C282.61 17.0462 282.533 17.2302 282.416 17.4139L272.303 10.9533ZM276.703 10.5078H268.008V22.5078H276.703V10.5078ZM274.007 16.5929C274.031 14.9198 274.409 13.9496 274.805 13.3555L264.82 6.69914C262.883 9.60507 262.058 12.9552 262.008 16.4227L274.007 16.5929ZM274.781 13.3913C275.31 12.6093 275.973 12.0571 276.894 11.6647L272.192 0.624388C269.176 1.90906 266.685 3.94535 264.844 6.6634L274.781 13.3913ZM276.919 11.6542C278.054 11.1647 279.462 10.8594 281.242 10.8594V-1.14062C278.064 -1.14062 275.006 -0.589171 272.167 0.634904L276.919 11.6542ZM281.242 10.8594C283.277 10.8594 284.847 11.1797 286.062 11.6744L290.586 0.559998C287.682 -0.622423 284.53 -1.14062 281.242 -1.14062V10.8594ZM286.062 11.6744C287.198 12.1369 287.858 12.707 288.293 13.3115L298.035 6.30565C296.137 3.66543 293.57 1.77459 290.586 0.559998L286.062 11.6744ZM288.293 13.3115C288.631 13.7822 288.914 14.4577 288.914 15.6328H300.914C300.914 12.2871 300.03 9.07976 298.035 6.30565L288.293 13.3115ZM288.914 15.5828C288.904 16.7853 288.625 17.4225 288.363 17.8018L298.238 24.6201C300.091 21.9369 300.887 18.8553 300.914 15.6828L288.914 15.5828ZM288.355 17.8143C287.907 18.4657 287.109 19.2663 285.695 20.1171L291.883 30.3986C294.407 28.8795 296.616 26.9822 298.247 24.6076L288.355 17.8143ZM285.792 20.0597C283.78 21.2197 281.817 22.7476 280.447 24.8214L290.459 31.4365C290.438 31.4688 290.49 31.3799 290.707 31.1931C290.924 31.006 291.268 30.7541 291.786 30.4559L285.792 20.0597ZM280.475 24.7798C278.939 27.063 278.441 29.6735 278.414 32.0832L290.414 32.2136C290.419 31.7615 290.467 31.5014 290.497 31.3874C290.524 31.2817 290.525 31.3396 290.431 31.478L280.475 24.7798ZM278.414 32.1484V32.9141H290.414V32.1484H278.414ZM284.414 26.9141H276.375V38.9141H284.414V26.9141ZM282.375 32.9141V32.1484H270.375V32.9141H282.375ZM281.608 40.4453C281.61 40.5315 281.6 40.6584 281.562 40.8069C281.524 40.9558 281.468 41.0793 281.416 41.1678L271.06 35.1056C270.057 36.8198 269.57 38.7251 269.611 40.6953L281.608 40.4453ZM281.361 41.2604C281.342 41.2909 281.303 41.3456 281.241 41.4067C281.179 41.4681 281.118 41.5116 281.074 41.5375L275.012 31.1813C273.398 32.1257 272.082 33.428 271.116 35.0131L281.361 41.2604ZM281.02 41.5688C280.961 41.6024 280.875 41.641 280.769 41.6688C280.664 41.6965 280.58 41.7031 280.531 41.7031V29.7031C278.608 29.7031 276.751 30.1874 275.066 31.1499L281.02 41.5688ZM280.531 41.7031C280.443 41.7031 280.334 41.6909 280.22 41.6603C280.107 41.6298 280.028 41.5916 279.988 41.5688L285.942 31.1499C284.297 30.2102 282.464 29.7031 280.531 29.7031V41.7031ZM279.988 41.5688C279.95 41.5472 279.888 41.5047 279.819 41.4383C279.75 41.3716 279.702 41.3067 279.674 41.2604L289.92 35.0131C288.932 33.3937 287.581 32.0864 285.942 31.1499L279.988 41.5688ZM279.73 41.35C279.68 41.2709 279.617 41.1477 279.571 40.9881C279.524 40.8281 279.508 40.6819 279.508 40.5703H291.508C291.508 38.5437 290.94 36.6202 289.864 34.9235L279.73 41.35ZM279.508 40.5703C279.508 40.4793 279.521 40.3541 279.561 40.214C279.601 40.0742 279.654 39.9671 279.695 39.9005L289.898 46.2167C290.955 44.5105 291.508 42.5888 291.508 40.5703H279.508ZM279.641 39.9897C279.66 39.9585 279.697 39.9057 279.754 39.8482C279.812 39.7906 279.865 39.7534 279.896 39.7349L286.034 50.0464C287.658 49.0796 288.986 47.7516 289.953 46.1275L279.641 39.9897ZM279.988 39.6812C280.028 39.6584 280.107 39.6202 280.22 39.5897C280.334 39.5591 280.443 39.5469 280.531 39.5469V51.5469C282.464 51.5469 284.297 51.0398 285.942 50.1001L279.988 39.6812ZM280.531 39.5469C280.58 39.5469 280.664 39.5535 280.769 39.5812C280.875 39.609 280.961 39.6476 281.02 39.6812L275.066 50.1001C276.751 51.0626 278.608 51.5469 280.531 51.5469V39.5469ZM281.167 39.7678C281.203 39.7903 281.254 39.8281 281.306 39.8802C281.357 39.9319 281.385 39.9742 281.394 39.9897L271.083 46.1275C272.029 47.7175 273.322 49.0394 274.919 50.0134L281.167 39.7678ZM281.448 40.0818C281.491 40.1567 281.537 40.2633 281.57 40.3921C281.602 40.5203 281.609 40.6266 281.608 40.6927L269.611 40.4479C269.571 42.4115 270.045 44.3142 271.029 46.0354L281.448 40.0818Z" fill="white" mask="url(#path-1-outside-1_4086_1149)"/>
</svg>
