<svg width="371" height="97" viewBox="0 0 371 97" fill="none" xmlns="http://www.w3.org/2000/svg">
<rect x="2" y="2" width="367" height="93" rx="46.5" fill="#F48E28" stroke="white" stroke-width="4"/>
<path fill-rule="evenodd" clip-rule="evenodd" d="M307.145 33.7615C306.056 32.6722 306.056 30.9062 307.145 29.8169C308.234 28.7277 310 28.7277 311.09 29.8169L328.183 46.9098C328.754 47.4817 329.026 48.2401 328.997 48.9892C329.026 49.7383 328.754 50.4967 328.183 51.0686L311.09 68.1615C310 69.2508 308.234 69.2508 307.145 68.1615C306.056 67.0723 306.056 65.3062 307.145 64.217L319.531 51.8316H283.789C282.249 51.8316 281 50.5828 281 49.0424C281 47.502 282.249 46.2532 283.789 46.2532H319.637L307.145 33.7615Z" fill="white"/>
<path d="M86.8286 51.3281H70.5161V53.25H82.188V63.75H58.6567V65.7188H83.4067V70.2656H51.9536V59.5312H75.4848V57.8906H51.9067V53.25H63.8598V51.3281H47.5005V46.5H86.8286V51.3281ZM52.2817 28.0781H82.188V38.5312H59.0317V40.3594H82.8911V44.8594H52.3286V34.3125H75.3911V32.5781H52.2817V28.0781ZM105.86 43.7344H97.2348V47.4609C99.4536 47.4297 101.422 47.3438 103.141 47.2031C104.86 47.0469 106.625 46.8125 108.438 46.5L109.047 51.75C106.844 52.1562 104.633 52.4219 102.415 52.5469C100.196 52.6719 97.2973 52.7344 93.7192 52.7344H90.6723V38.9062H99.3911V35.625H90.6255V30.375H105.86V43.7344ZM94.0942 65.2031C97.1723 64.8125 99.727 64.1094 101.758 63.0938C103.79 62.0781 105.274 60.8906 106.211 59.5312C107.149 58.1719 107.625 56.7656 107.641 55.3125V54.6094H114.391V55.3125C114.375 56.7656 114.836 58.1719 115.774 59.5312C116.711 60.8906 118.196 62.0781 120.227 63.0938C122.274 64.1094 124.86 64.8125 127.985 65.2031L125.407 70.2656C122 69.8125 119.086 68.9531 116.665 67.6875C114.258 66.4219 112.375 64.8359 111.016 62.9297C109.672 64.8359 107.782 66.4219 105.344 67.6875C102.922 68.9531 100.016 69.8125 96.6255 70.2656L94.0942 65.2031ZM107.313 36.75H110.875V28.3125H117.204V52.9688H110.875V42.0938H107.313V36.75ZM119.688 27.5156H126.11V56.7188H119.688V27.5156ZM175.891 42.1875H164.219V44.5781H180.485V49.875H141.25V44.5781H157.422V42.1875H146.032V28.8281H175.61V34.1719H152.782V36.8906H175.891V42.1875ZM145.704 58.5H169.094V56.6719H145.704V51.75H175.797V63.1406H152.36V65.1562H176.829V70.2188H145.704V58.5ZM218.922 70.5938H212.219V27.4688H218.922V70.5938ZM184.985 42.6562H198.625V36.375H184.985V30.9844H205.516V47.9531H191.969V55.125C195.297 55.0938 198.344 54.9688 201.11 54.75C203.875 54.5312 206.672 54.1875 209.5 53.7188L210.063 59.1562C206.891 59.7344 203.688 60.125 200.454 60.3281C197.235 60.5312 193.391 60.6406 188.922 60.6562H184.985V42.6562ZM260.547 70.5H253.704V27.4688H260.547V70.5ZM224.219 57.9844C227.844 56.2812 230.813 54.4141 233.125 52.3828C235.438 50.3516 237.196 48.1016 238.399 45.6328C239.618 43.1484 240.391 40.3281 240.719 37.1719H226.657V31.9219H247.61C247.594 36.6406 246.993 40.8906 245.805 44.6719C244.633 48.4531 242.586 51.9219 239.665 55.0781C236.758 58.2188 232.782 60.9688 227.735 63.3281L224.219 57.9844Z" fill="white"/>
</svg>
